<?xml version="1.0" encoding="utf-8"?>
<!-- Generator: Adobe Illustrator 25.2.3, SVG Export Plug-In . SVG Version: 6.00 Build 0)  -->
<svg version="1.1" id="Layer_1" xmlns="http://www.w3.org/2000/svg" xmlns:xlink="http://www.w3.org/1999/xlink" x="0px" y="0px"
	 viewBox="0 0 612.3 75.4" style="enable-background:new 0 0 612.3 75.4;" xml:space="preserve">
<style type="text/css">
	.st0{fill:#1B649D;}
	.st1{fill:#EE6324;}
</style>
<g>
	<path class="st0" d="M0,16.4h12.9v6.4c3-3.8,6.9-7.3,13.4-7.3c5.9,0,10.4,2.6,12.8,7.2c4-4.7,8.7-7.2,14.9-7.2
		c9.6,0,15.3,5.8,15.3,16.7v29.5H56.3V36.5c0-6.1-2.7-9.2-7.5-9.2S41,30.4,41,36.5v25.3H28.2V36.5c0-6.1-2.7-9.2-7.5-9.2
		s-7.8,3.1-7.8,9.2v25.3H0L0,16.4z"/>
	<path class="st0" d="M129.7,16.4h12.9v9.1c2.6-6.3,6.9-10.3,14.5-10V29h-0.7c-8.5,0-13.8,5.2-13.8,16v16.7h-12.9V16.4z"/>
	<path class="st0" d="M163.2,16.4h12.9v6.4c3-3.8,6.8-7.3,13.3-7.3c9.7,0,15.4,6.4,15.4,16.8v29.3h-12.9V36.5c0-6.1-2.9-9.2-7.8-9.2
		c-4.9,0-8,3.1-8,9.2v25.3h-12.9V16.4z"/>
	<path class="st0" d="M211.2,0l13.5,0v11.4h-13.5V0z M211.5,16.4h12.9v45.3h-12.9V16.4z"/>
	<path class="st0" d="M231.6,16.4h12.9v6.4c3-3.8,6.8-7.3,13.3-7.3c9.7,0,15.4,6.4,15.4,16.8v29.3h-12.9V36.5c0-6.1-2.9-9.2-7.8-9.2
		c-4.9,0-8,3.1-8,9.2v25.3h-12.9V16.4z"/>
	<path class="st0" d="M279.6,70.7l4.4-9.6c4.7,2.6,9.3,4.1,15.3,4.1c8.8,0,12.9-4.2,12.9-12.3v-2.2c-3.8,4.6-7.9,7.4-14.8,7.4
		c-10.6,0-20.1-7.7-20.1-21.1v-0.2c0-13.5,9.7-21.1,20.1-21.1c7,0,11.2,3,14.6,6.8v-5.9h12.9v35.1c0,8.1-1.9,14-5.8,17.8
		c-4.2,4.2-10.7,6.1-19.5,6.1C292.2,75.4,285.3,73.8,279.6,70.7z M312.2,36.9v-0.2c0-6.2-4.8-10.5-11.1-10.5c-6.3,0-11,4.3-11,10.5
		v0.2c0,6.3,4.7,10.5,11,10.5C307.4,47.4,312.2,43.1,312.2,36.9z"/>
	<path class="st0" d="M342.3,39.2v-0.2c0-12.9,9.2-23.6,22.4-23.6c15.1,0,22.1,11.8,22.1,24.6c0,1-0.1,2.2-0.2,3.4h-31.5
		c1.3,5.8,5.3,8.9,11.1,8.9c4.3,0,7.4-1.4,11-4.7l7.4,6.5c-4.2,5.2-10.3,8.5-18.5,8.5C352.4,62.7,342.3,53.1,342.3,39.2z
		 M374.3,35.4c-0.8-5.8-4.1-9.6-9.6-9.6c-5.3,0-8.8,3.8-9.8,9.6H374.3z"/>
	<path class="st0" d="M390.9,39.1v-0.2c0-15.1,9.9-23.4,20.6-23.4c6.9,0,11.1,3.1,14.1,6.8V-0.1h12.9v61.7h-12.9v-6.5
		c-3.1,4.2-7.4,7.4-14.1,7.4C401,62.5,390.9,54.2,390.9,39.1z M425.9,39.1v-0.2c0-7.5-5-12.5-11-12.5s-11.1,4.9-11.1,12.5v0.2
		c0,7.5,5.1,12.5,11.1,12.5S425.9,46.6,425.9,39.1z"/>
	<path class="st0" d="M445.3-0.1l13.5,0v11.4h-13.5V-0.1z M445.7,16.3h12.9v45.3h-12.9V16.3z"/>
	<path class="st0" d="M469.4,48.8V27.3h-5.4v-11h5.4V4.7h12.9v11.6h10.7v11h-10.7v19.4c0,3,1.3,4.4,4.1,4.4c2.4,0,4.5-0.6,6.3-1.6
		v10.3c-2.7,1.6-5.8,2.6-10.1,2.6C474.7,62.4,469.4,59.3,469.4,48.8z"/>
	<path class="st0" d="M497.7-0.1h13.5v11.4h-13.5V-0.1z M498,16.3h12.9v45.3H498V16.3z"/>
	<path class="st0" d="M570.8,16.3h12.9v6.4c3-3.8,6.8-7.3,13.3-7.3c9.7,0,15.4,6.4,15.4,16.8v29.3h-12.9V36.4c0-6.1-2.9-9.2-7.8-9.2
		c-4.9,0-8,3.1-8,9.2v25.3h-12.9V16.3z"/>
	<path class="st1" d="M99.3,15.5c-13.8,0-24.6,10.6-24.6,24.1v1.4l12.4,0v-1.5c0-7.4,5.1-12.8,12-12.8c7,0,12.3,5.6,12.3,13V41h12.5
		v-1.5C123.9,26.1,113.1,15.5,99.3,15.5z"/>
	<path class="st1" d="M540.4,15.5c-13.8,0-24.6,10.6-24.6,24.1V41l12.4,0v-1.5c0-7.4,5.1-12.8,12-12.8c7,0,12.3,5.6,12.3,13V41h12.5
		v-1.5C564.9,26,554.1,15.5,540.4,15.5z"/>
</g>
</svg>
