<?xml version="1.0" encoding="utf-8"?>
<!-- Generator: Adobe Illustrator 28.1.0, SVG Export Plug-In . SVG Version: 6.00 Build 0)  -->
<svg version="1.1" id="Layer_1" xmlns="http://www.w3.org/2000/svg" xmlns:xlink="http://www.w3.org/1999/xlink" x="0px" y="0px"
	 viewBox="0 0 533 170.8" style="enable-background:new 0 0 533 170.8;" xml:space="preserve">
<style type="text/css">
	.st0{fill:#80A7D6;}
	.st1{fill:#217BAE;}
	.st2{fill:#C72021;}
</style>
<rect x="480.2" y="75.5" class="st0" width="17.2" height="94.7"/>
<rect x="399.2" y="110.1" class="st1" width="133.9" height="15.5"/>
<rect x="279.4" y="156" class="st0" width="104.5" height="12.6"/>
<path class="st2" d="M312.5,148.8L300.1,136c29.3-28.2,56.1-58.4,56.3-58.7c5.4-6.2,9.6-18.5,9.6-27.9c0-8.5-3.1-16.4-8.9-22.2
	c-6-6-14.7-9.4-24.3-9.4h-3.8c-18.8,0-34.6,15.3-34.6,33.5v4.9h-17.8v-4.9c0-27.8,24-51.3,52.5-51.3h3.8c14.4,0,27.5,5.2,37,14.6
	c9.1,9.1,14.1,21.5,14.1,34.8c0,13.8-5.8,30.1-14.1,39.6C369.5,89.4,342.3,120.2,312.5,148.8L312.5,148.8z"/>
<path class="st0" d="M288.1,149.7L275.5,137l17.3-17.1c28.4-27.3,50.3-53.1,50.5-53.4l0.2-0.2c2.9-3.4,6-11.2,5.6-16.1
	c-0.4-5.1-1.7-8.7-4-10.9c-2.8-2.9-7.2-4.4-12.4-4.4h-3.8c-9.3,0-17.7,7.9-17.7,16.6v4.9h-17.8v-4.9c0-18.7,16.3-34.4,35.6-34.4h3.8
	c9.9,0,18.8,3.4,25,9.7c5.3,5.3,8.4,12.7,9.1,22.1c0.9,10.6-4.5,23-9.9,29.3l-0.1,0.1c-0.2,0.2-22.7,26.6-51.7,54.6L288.1,149.7
	L288.1,149.7z"/>
<path class="st2" d="M399.2,141.1H427c7.2-7.8,14.3-16.5,21.1-25.8c29.5-40.2,49.3-85,49.3-111.5h-20.9c0,22-19.1,64.1-45.5,100
	c-10.5,14.3-21.2,26.6-31.8,36.5L399.2,141.1L399.2,141.1z"/>
<path class="st0" d="M399.2,140.1c10.6-9.9,21.3-22.1,31.7-36.4c26.3-35.9,45.5-78,45.5-99.9h-20.9c0,21.8-24.4,64.9-41.7,88.5
	c-5,6.8-9.9,12.9-14.6,18.4V140.1z"/>
<rect x="399.2" y="110.1" class="st1" width="52.8" height="15.5"/>
<rect x="399.2" y="125.6" class="st2" width="133.9" height="15.5"/>
<rect x="497.4" y="75.5" class="st1" width="17.2" height="94.7"/>
<rect x="275.5" y="153.9" class="st0" width="110.4" height="16.9"/>
<rect x="275.5" y="137" class="st1" width="110.4" height="16.9"/>
<rect x="301.1" y="137" class="st2" width="23.8" height="16.9"/>
<rect x="3.8" y="156" class="st0" width="104.5" height="12.6"/>
<path class="st1" d="M37,148.8L24.6,136c29.3-28.2,56.1-58.4,56.3-58.7c5.4-6.2,9.6-18.5,9.6-27.9c0-8.5-3.1-16.4-8.9-22.2
	c-6-6-14.7-9.4-24.3-9.4h-3.8c-18.8,0-34.6,15.3-34.6,33.5v4.9H1.1v-4.9C1.1,23.5,25.1,0,53.5,0h3.8c14.4,0,27.5,5.2,37,14.6
	c9.1,9.1,14.1,21.5,14.1,34.8c0,13.8-5.8,30.1-14.1,39.6C94,89.4,66.8,120.2,37,148.8L37,148.8z"/>
<path class="st2" d="M12.6,149.7L0,137l17.3-17.1c28.4-27.3,50.3-53.1,50.5-53.4l0.2-0.2c2.9-3.4,6-11.2,5.6-16.1
	c-0.4-5.1-1.7-8.7-4-10.9c-2.9-2.9-7.2-4.4-12.4-4.4h-3.8c-9.3,0-17.7,7.9-17.7,16.6v4.9H18v-4.9c0-18.7,16.3-34.4,35.6-34.4h3.8
	c9.9,0,18.8,3.4,25,9.7c5.3,5.3,8.4,12.7,9.1,22.1c0.9,10.6-4.5,23-9.9,29.3l-0.1,0.1c-0.2,0.2-22.7,26.6-51.7,54.6L12.6,149.7
	L12.6,149.7z"/>
<rect y="153.9" class="st2" width="110.4" height="16.9"/>
<rect y="137" class="st0" width="110.4" height="16.9"/>
<rect x="25.6" y="137" class="st1" width="23.8" height="16.9"/>
<path class="st1" d="M192.2,2.5c-2.2,0-4.4,0.1-6.6,0.3h13C196.6,2.6,194.4,2.5,192.2,2.5L192.2,2.5z"/>
<path class="st1" d="M258.3,60c-2.5-12.5-6.9-23.1-13.2-31.8c-11-15.1-26.9-23.8-46.4-25.4h-13c-19.5,1.5-35.4,10-46.1,24.7
	c-6.5,8.8-10.9,19.6-13.4,32.5h17.3c2-9,5.3-16.5,9.7-22.5c8.6-11.8,22.1-18,39-18s30.3,6.5,39.2,18.7c4.3,6,7.5,13.3,9.6,21.9
	c2,8,2.9,17.1,2.9,27.3c0,11.2-1.3,21.1-3.9,29.8h17.5c2.2-9,3.3-19,3.3-29.8C260.8,77.4,260,68.3,258.3,60L258.3,60z"/>
<path class="st0" d="M241,60c-2.1-8.6-5.3-16-9.6-21.9c-8.8-12.2-22.4-18.7-39.2-18.7s-30.4,6.2-39,18c-4.5,6.1-7.7,13.6-9.7,22.5
	h18.4c1.4-4.7,3.3-8.7,5.7-12c5.3-7.2,13.3-10.7,24.6-10.7s19.2,3.7,24.7,11.3c2.3,3.2,4.2,7,5.6,11.5c2.4,7.4,3.6,16.5,3.6,27.3
	c0,11.9-1.7,21.9-5,29.8H240c2.6-8.7,3.9-18.6,3.9-29.8C243.9,77.1,243,68,241,60L241,60z"/>
<path class="st2" d="M240,117.1c-2.2,7.5-5.4,14-9.5,19.5c-9.1,12.2-22.4,18.6-38.2,18.6s-29.2-6.2-38.1-18
	c-4.2-5.6-7.4-12.3-9.7-20.1c-2.5-8.6-3.7-18.6-3.7-29.8c0-10.3,0.9-19.4,2.7-27.3h-17.3c-1.6,8.2-2.4,17.3-2.4,27.3
	c0,10.9,1.1,20.8,3.1,29.8c2.8,11.8,7.3,22,13.6,30.3c12.2,16.1,30.1,24.7,51.6,24.7s39.5-9,51.8-25.4c6.2-8.3,10.8-18.2,13.6-29.6
	H240L240,117.1z"/>
<path class="st1" d="M221.1,117.1c-1.4,3.3-3,6.2-4.9,8.8c-5.7,7.6-13.8,11.5-24,11.5s-18.3-3.6-23.9-10.9c-2-2.7-3.7-5.8-5.1-9.3
	c-3.1-7.8-4.6-17.8-4.6-29.8c0-11,1.1-20.1,3.3-27.3h-18.4c-1.8,7.9-2.7,17-2.7,27.3c0,11.2,1.2,21.2,3.7,29.8h1
	c2.2,7.6,5.3,14.1,9.4,19.5c8.7,11.5,21.6,17.6,37.4,17.6s28.7-6.5,37.5-18.2c4-5.4,7.1-11.7,9.3-18.9L221.1,117.1L221.1,117.1z"/>
<path class="st1" d="M229.7,136c-8.8,11.8-22.1,18.2-37.5,18.2s-28.6-6.1-37.4-17.6c-4.1-5.4-7.2-12-9.4-19.5h-1
	c2.2,7.8,5.4,14.6,9.7,20.1c8.9,11.8,22.1,18,38.1,18s29.1-6.4,38.2-18.6c4.1-5.5,7.3-12,9.5-19.5h-1
	C236.8,124.4,233.7,130.7,229.7,136L229.7,136z"/>
</svg>
